<?xml version="1.0" encoding="utf-8"?>
<!-- Generator: Adobe Illustrator 19.2.1, SVG Export Plug-In . SVG Version: 6.00 Build 0)  -->
<svg version="1.1" id="layer" xmlns="http://www.w3.org/2000/svg" xmlns:xlink="http://www.w3.org/1999/xlink" x="0px" y="0px"
	 viewBox="0 0 652 652" style="enable-background:new 0 0 652 652;" xml:space="preserve">
<style type="text/css">
	.st0{fill:#5293C5;}
</style>
<g>
	<g>
		<path class="st0" d="M158,303.2h11.4v3.2h-7.3v6.1h6.9v3.2h-6.9v9.9H158V303.2L158,303.2z"/>
		<path class="st0" d="M178.5,308.8c3.5,0,7.3,1.8,7.3,8.5c0,7.1-3.9,8.7-7.3,8.7s-7.5-1.6-7.5-8.7
			C171,310.5,175.1,308.8,178.5,308.8z M178.5,323.1c2.6,0,3.2-3,3.2-5.7s-0.6-5.7-3.2-5.7c-2.6,0-3.2,3-3.2,5.7
			S175.9,323.1,178.5,323.1z"/>
		<path class="st0" d="M196,308.8c3.5,0,7.3,1.8,7.3,8.5c0,7.1-3.9,8.7-7.3,8.7c-3.5,0-7.3-1.6-7.3-8.7
			C188.5,310.5,192.5,308.8,196,308.8z M196,323.1c2.6,0,3.2-3,3.2-5.7s-0.6-5.7-3.2-5.7c-2.6,0-3.2,3-3.2,5.7
			S193.3,323.1,196,323.1z"/>
		<path class="st0" d="M220.1,301.3v21.5c0,1.2,0,2.2,0.2,2.8h-3.9c0-0.4-0.2-1.4-0.2-2.6l0,0c-0.6,1.4-1.8,2.8-4.5,2.8
			c-4.1,0-5.9-4.1-5.9-8.5c0-5.5,2.2-8.7,5.7-8.7c2.4,0,3.7,1.4,4.3,2.6l0,0v-9.9H220.1z M213,323.1c2.4,0,3.2-2.6,3.2-5.7
			c0-3.2-0.8-5.7-3-5.7c-2.2,0-3,2.2-3,5.5C210,321,210.6,323.1,213,323.1z"/>
		<path class="st0" d="M233.1,310.1c1.2-0.6,2.6-1.2,5.3-1.2c5.3,0,6.5,2.4,6.5,6.7v7.3c0,1.2,0.2,2.2,0.2,3h-3.7
			c-0.2-0.6-0.2-1.4-0.2-2.2l0,0c-1,1.4-2.2,2.4-4.7,2.4c-2.6,0-5.1-1.8-5.1-4.9c0-4.5,3.7-5.7,8.7-5.7h0.8v-0.6
			c0-1.6-0.8-3.2-3-3.2c-2,0-3.9,1-4.7,1.6L233.1,310.1z M241.1,317.6h-0.4c-3.5,0-5.5,0.8-5.5,3.2c0,1.6,1,2.6,2.6,2.6
			c2.4,0,3.2-1.8,3.2-4.9L241.1,317.6L241.1,317.6z"/>
		<path class="st0" d="M248.6,311.7c0-1,0-2-0.2-2.8h3.9c0,0.8,0.2,1.6,0.2,2.6l0,0c0.6-1,1.6-2.8,4.5-2.8c3.9,0,4.9,2.8,4.9,6.3
			v10.8h-4.1v-9.9c0-2.6-0.6-3.7-2.2-3.7c-2,0-2.8,1.8-2.8,3.9v9.7h-4.1V311.7z"/>
		<path class="st0" d="M279,301.3v21.5c0,1.2,0,2.2,0.2,2.8h-3.9c0-0.4-0.2-1.4-0.2-2.6l0,0c-0.6,1.4-1.8,2.8-4.5,2.8
			c-4.1,0-5.9-4.1-5.9-8.5c0-5.5,2.2-8.7,5.7-8.7c2.4,0,3.7,1.4,4.3,2.6l0,0v-9.9H279z M271.9,323.1c2.4,0,3.2-2.6,3.2-5.7
			c0-3.2-0.8-5.7-3-5.7s-3,2.2-3,5.5C268.9,321,269.5,323.1,271.9,323.1z"/>
		<path class="st0" d="M301.4,320.2h-7.7l-1.6,5.5H288l7.5-22.7h4.5l7.3,22.7H303L301.4,320.2z M300.5,317.2l-2.8-10.6l0,0l-3,10.6
			H300.5z"/>
		<path class="st0" d="M309.7,328.3c1,0.6,2.8,1.4,4.9,1.4c3.9,0,4.5-2.6,4.5-5.3v-1.6l0,0c-0.6,1.2-1.8,2.8-4.5,2.8
			c-2.2,0-5.9-1.6-5.9-8.3c0-4.7,1.6-8.7,6.1-8.7c2.4,0,3.7,1.4,4.5,2.8h0.2c0-0.8,0-1.6,0.2-2.6h3.7c0,0.8-0.2,1.8-0.2,2.6v12.4
			c0,5.3-1.6,8.9-7.7,8.9c-2.6,0-4.9-0.6-5.7-1V328.3z M315.6,322.9c2.4,0,3.5-1.8,3.5-5.7c0-3.5-1.4-5.5-3.2-5.3
			c-2,0-2.8,2-2.8,5.5C312.9,321.2,314.2,322.9,315.6,322.9z"/>
		<path class="st0" d="M326.7,311.7c0-1,0-2-0.2-2.8h3.7c0,1,0.2,2,0.2,3l0,0c0.4-1.2,1.8-3.2,4.3-3.2c0.2,0,0.4,0,0.6,0v3.9
			c-0.4,0-0.8-0.2-1.2-0.2c-1.6,0-3.5,1-3.5,4.1v9.3h-4.1L326.7,311.7L326.7,311.7z"/>
		<path class="st0" d="M338.5,301.9h4.1v4.1h-4.1V301.9z M338.5,309.1h4.1v16.6h-4.1V309.1z"/>
		<path class="st0" d="M357.8,325.3c-1,0.4-2.4,0.6-4.1,0.6c-5.5,0-7.9-3.9-7.9-8.5c0-4.9,2.4-8.7,8.1-8.7c1.2,0,2.8,0.4,3.5,0.6
			l-0.2,3.2c-0.8-0.4-1.6-0.8-2.8-0.8c-3,0-4.5,2-4.5,5.7c0,3,1.4,5.5,4.7,5.5c1,0,2.2-0.4,2.8-0.8L357.8,325.3z"/>
		<path class="st0" d="M373.6,323.1c0,1,0,2,0.2,2.8H370c0-0.8-0.2-1.6-0.2-2.6l0,0l0,0c-0.8,1.2-1.8,2.8-4.5,2.8
			c-3.9,0-4.9-2.8-4.9-6.3v-10.8h4.1v9.9c0,2.6,0.8,3.7,2.4,3.7c2.2,0,2.8-2,2.8-4.1v-9.5h4.1L373.6,323.1L373.6,323.1z"/>
		<path class="st0" d="M377.7,301.3h4.1v24.4h-4.1V301.3z"/>
		<path class="st0" d="M387,305.6l4.1-1.2v4.7h3.2v3h-3.2v8.7c0,1.8,0.6,2.2,1.8,2.2c0.8,0,1.2-0.2,1.6-0.4v2.8
			c-0.6,0.2-1.4,0.6-2.6,0.6c-3,0-4.7-1.4-4.7-4.9v-9.1h-2.6v-3h2.6L387,305.6L387,305.6z"/>
		<path class="st0" d="M410.2,323.1c0,1,0,2,0.2,2.8h-3.9c0-0.8-0.2-1.6-0.2-2.6l0,0l0,0c-0.8,1.2-1.8,2.8-4.5,2.8
			c-3.9,0-4.9-2.8-4.9-6.3v-10.8h4.1v9.9c0,2.6,0.8,3.7,2.4,3.7c2.2,0,2.8-2,2.8-4.1v-9.5h4.1L410.2,323.1L410.2,323.1z"/>
		<path class="st0" d="M414,311.7c0-1,0-2-0.2-2.8h3.7c0,1,0.2,2,0.2,3l0,0c0.4-1.2,1.8-3.2,4.3-3.2c0.2,0,0.4,0,0.6,0v3.9
			c-0.4,0-0.8-0.2-1.2-0.2c-1.6,0-3.5,1-3.5,4.1v9.3h-4.1L414,311.7L414,311.7z"/>
		<path class="st0" d="M437.2,324.9c-0.8,0.4-2.6,1-5.1,1c-5.5,0-7.7-3.9-7.7-8.3c0-5.1,2.6-8.9,6.9-8.9c3.7,0,6.7,2,6.7,8.9v0.8
			h-9.7c0,2.8,1.2,4.7,4.3,4.7c2.4,0,3.7-0.8,4.5-1.2L437.2,324.9z M434.2,316c0-3-1-4.5-2.8-4.5c-2,0-3,2.2-3,4.5H434.2z"/>
		<path class="st0" d="M458.3,302.8c4.7,0,8.9,3.5,8.9,11.6s-4.3,11.6-8.9,11.6s-8.9-3.5-8.9-11.6S453.6,302.8,458.3,302.8z
			 M458.3,322.9c2.6,0,4.7-2.2,4.7-8.5s-2-8.5-4.7-8.5c-2.6,0-4.7,2.2-4.7,8.5C453.6,320.6,455.7,322.9,458.3,322.9z"/>
		<path class="st0" d="M470.9,311.7c0-1,0-2-0.2-2.8h3.7c0,1,0.2,2,0.2,3l0,0c0.4-1.2,1.8-3.2,4.3-3.2c0.2,0,0.4,0,0.6,0v3.9
			c-0.4,0-0.8-0.2-1.2-0.2c-1.6,0-3.5,1-3.5,4.1v9.3h-4.1L470.9,311.7L470.9,311.7z"/>
		<path class="st0" d="M482.3,328.3c1,0.6,2.8,1.4,4.9,1.4c3.9,0,4.5-2.6,4.5-5.3v-1.6l0,0c-0.6,1.2-1.8,2.8-4.5,2.8
			c-2.4,0-5.9-1.6-5.9-8.3c0-4.7,1.6-8.7,6.1-8.7c2.4,0,3.7,1.4,4.5,2.8h0.2c0-0.8,0-1.6,0.2-2.6h3.7c0,0.8-0.2,1.8-0.2,2.6v12.4
			c0,5.3-1.6,8.9-7.7,8.9c-2.6,0-4.9-0.6-5.7-1V328.3z M488.2,322.9c2.4,0,3.5-1.8,3.5-5.7c0-3.5-1.4-5.5-3.2-5.3
			c-2,0-2.8,2-2.8,5.5C485.5,321.2,486.7,322.9,488.2,322.9z"/>
		<path class="st0" d="M500.1,310.1c1.2-0.6,2.6-1.2,5.3-1.2c5.3,0,6.3,2.4,6.3,6.7v7.3c0,1.2,0.2,2.2,0.2,3h-3.7
			c-0.2-0.6-0.2-1.4-0.2-2.2l0,0c-1,1.4-2.2,2.4-4.7,2.4c-2.6,0-5.1-1.8-5.1-4.9c0-4.5,3.7-5.7,8.7-5.7h0.8v-0.6
			c0-1.6-0.8-3.2-3-3.2c-2,0-3.9,1-4.7,1.6V310.1z M508.1,317.6h-0.4c-3.5,0-5.5,0.8-5.5,3.2c0,1.6,1,2.6,2.6,2.6
			c2.4,0,3.2-1.8,3.2-4.9L508.1,317.6L508.1,317.6z"/>
		<path class="st0" d="M515.4,311.7c0-1,0-2-0.2-2.8h3.9c0,0.8,0.2,1.6,0.2,2.6l0,0c0.6-1,1.6-2.8,4.5-2.8c3.9,0,4.9,2.8,4.9,6.3
			v10.8h-4.1v-9.9c0-2.6-0.6-3.7-2.2-3.7c-2,0-2.8,1.8-2.8,3.9v9.7h-4.1L515.4,311.7L515.4,311.7z"/>
		<path class="st0" d="M532.6,301.9h4.1v4.1h-4.1V301.9z M532.6,309.1h4.1v16.6h-4.1V309.1z"/>
		<path class="st0" d="M539.9,322.2l7.1-10.2h-6.9v-3h11v3.5l-7.1,10.2h7.3v3h-11.4L539.9,322.2L539.9,322.2z"/>
		<path class="st0" d="M554.8,310.1c1.2-0.6,2.6-1.2,5.3-1.2c5.3,0,6.3,2.4,6.3,6.7v7.3c0,1.2,0.2,2.2,0.2,3h-3.7
			c-0.2-0.6-0.2-1.4-0.2-2.2l0,0c-1,1.4-2.2,2.4-4.7,2.4c-2.6,0-5.1-1.8-5.1-4.9c0-4.5,3.7-5.7,8.7-5.7h0.8v-0.6
			c0-1.6-0.8-3.2-3-3.2c-2,0-3.9,1-4.7,1.6V310.1z M562.7,317.6h-0.4c-3.5,0-5.5,0.8-5.5,3.2c0,1.6,1,2.6,2.6,2.6
			c2.4,0,3.2-1.8,3.2-4.9L562.7,317.6L562.7,317.6z"/>
		<path class="st0" d="M571.6,305.6l4.1-1.2v4.7h3.2v3h-3.2v8.7c0,1.8,0.6,2.2,1.8,2.2c0.8,0,1.2-0.2,1.6-0.4v2.8
			c-0.6,0.2-1.4,0.6-2.6,0.6c-3,0-4.7-1.4-4.7-4.9v-9.1H569v-3h2.6V305.6L571.6,305.6z"/>
		<path class="st0" d="M582,301.9h4.1v4.1H582V301.9z M582,309.1h4.1v16.6H582V309.1z"/>
		<path class="st0" d="M597,308.8c3.5,0,7.3,1.8,7.3,8.5c0,7.1-3.9,8.7-7.3,8.7c-3.5,0-7.3-1.6-7.3-8.7
			C589.7,310.5,593.5,308.8,597,308.8z M597,323.1c2.6,0,3.2-3,3.2-5.7s-0.6-5.7-3.2-5.7c-2.6,0-3.2,3-3.2,5.7
			S594.4,323.1,597,323.1z"/>
		<path class="st0" d="M607.6,311.7c0-1,0-2-0.2-2.8h3.9c0,0.8,0.2,1.6,0.2,2.6l0,0c0.6-1,1.6-2.8,4.5-2.8c3.9,0,4.9,2.8,4.9,6.3
			v10.8h-4.1v-9.9c0-2.6-0.6-3.7-2.2-3.7c-2,0-2.8,1.8-2.8,3.9v9.7h-4.1V311.7L607.6,311.7z"/>
		<path class="st0" d="M164.3,345.4c3.5,0,7.3,1.8,7.3,8.5c0,7.1-3.9,8.7-7.3,8.7c-3.5,0-7.5-1.6-7.5-8.5
			C156.8,347.2,160.9,345.4,164.3,345.4z M164.3,359.8c2.6,0,3.2-3,3.2-5.7c0-2.6-0.6-5.7-3.2-5.7c-2.6,0-3.2,3-3.2,5.7
			C161.1,356.8,161.7,359.8,164.3,359.8z"/>
		<path class="st0" d="M176.1,348.6h-2.8v-3h2.8v-3.5c0-2.4,1.2-4.7,4.9-4.7c1,0,2,0.2,2.8,0.4l-0.2,2.8c-0.4-0.2-1-0.2-1.6-0.2
			c-1.2,0-1.8,0.8-1.8,2v2.8h3v3h-3v13.8h-4.1C176.1,362.5,176.1,348.6,176.1,348.6z"/>
		<path class="st0" d="M195.6,342.3l4.1-1.2v4.7h3.2v3h-3.5v8.7c0,1.8,0.6,2.2,1.8,2.2c0.8,0,1.2-0.2,1.6-0.4v2.8
			c-0.6,0.2-1.4,0.6-2.6,0.6c-3,0-4.7-1.4-4.7-4.9v-9.1h-2.6v-3h2.6C195.6,345.8,195.6,342.3,195.6,342.3z"/>
		<path class="st0" d="M205.5,338.1h4.1v9.7l0,0c0.8-1,1.6-2.4,4.1-2.4c3.9,0,4.9,2.8,4.9,6.3v10.8h-4.1v-9.9c0-2.6-0.6-3.7-2.2-3.7
			c-2,0-2.8,1.8-2.8,3.9v9.7h-4.1L205.5,338.1L205.5,338.1z"/>
		<path class="st0" d="M234.6,361.6c-0.8,0.4-2.6,1-5.1,1c-5.5,0-7.7-3.9-7.7-8.3c0-5.1,2.6-8.9,6.9-8.9c3.7,0,6.7,2,6.7,8.9v0.8
			h-9.7c0,2.8,1.2,4.7,4.3,4.7c2.4,0,3.7-0.8,4.5-1.2L234.6,361.6z M231.5,352.7c0-3-1-4.5-2.8-4.5c-2,0-3,2.2-3,4.5H231.5z"/>
		<path class="st0" d="M251.4,339.7v14.6c0,3.9,1.2,5.1,3.7,5.1c2.4,0,3.5-1.2,3.5-5.1v-14.6h4.1v14.6c0,5.9-3.5,8.3-7.7,8.3
			c-4.3,0-7.7-2.4-7.7-8.3v-14.6C247.3,339.7,251.4,339.7,251.4,339.7z"/>
		<path class="st0" d="M266.8,348.4c0-1,0-2-0.2-2.8h3.9c0,0.8,0.2,1.6,0.2,2.6l0,0c0.6-1,1.6-2.8,4.5-2.8c3.9,0,4.9,2.8,4.9,6.3
			v10.8H276v-9.9c0-2.6-0.6-3.7-2.2-3.7c-2,0-2.8,1.8-2.8,3.9v9.7h-4.1V348.4L266.8,348.4z"/>
		<path class="st0" d="M283.9,338.7h4.1v4.1h-4.1V338.7z M284.1,345.8h4.1v16.6h-4.1V345.8z"/>
		<path class="st0" d="M293.6,342.3l4.1-1.2v4.7h3.2v3h-3.2v8.7c0,1.8,0.6,2.2,1.8,2.2c0.8,0,1.2-0.2,1.6-0.4v2.8
			c-0.6,0.2-1.4,0.6-2.6,0.6c-3,0-4.7-1.4-4.7-4.9v-9.1h-3v-3h2.6L293.6,342.3L293.6,342.3z"/>
		<path class="st0" d="M315.8,361.6c-0.8,0.4-2.6,1-5.1,1c-5.5,0-7.7-3.9-7.7-8.3c0-5.1,2.6-8.9,6.9-8.9c3.7,0,6.7,2,6.7,8.9v0.8
			h-9.7c0,2.8,1.2,4.7,4.3,4.7c2.4,0,3.7-0.8,4.5-1.2L315.8,361.6z M312.7,352.7c0-3-1-4.5-2.8-4.5c-2,0-3,2.2-3,4.5H312.7z"/>
		<path class="st0" d="M333.4,338.1v21.5c0,1.2,0,2.2,0.2,2.8h-3.9c0-0.4-0.2-1.4-0.2-2.6l0,0c-0.6,1.4-1.8,2.8-4.5,2.8
			c-4.1,0-5.9-4.1-5.9-8.5c0-5.5,2.2-8.7,5.7-8.7c2.4,0,3.7,1.4,4.3,2.6l0,0v-9.9H333.4L333.4,338.1z M326.1,359.8
			c2.4,0,3.2-2.6,3.2-5.7c0-3.2-0.8-5.7-3-5.7c-2.2,0-3,2.2-3,5.5C323.3,357.8,323.9,359.8,326.1,359.8z"/>
		<path class="st0" d="M346,339.7h4.9l7.5,17.9l0,0v-17.9h3.9v22.7h-4.9l-7.5-17.7l0,0v17.7H346V339.7L346,339.7z"/>
		<path class="st0" d="M367.3,346.6c1.2-0.6,2.6-1.2,5.3-1.2c5.3,0,6.3,2.4,6.3,6.7v7.3c0,1.2,0.2,2.2,0.2,3h-3.7
			c-0.2-0.6-0.2-1.4-0.2-2.2l0,0c-1,1.4-2.2,2.4-4.7,2.4c-2.6,0-5.1-1.8-5.1-4.9c0-4.5,3.7-5.7,8.7-5.7h0.8v-0.6
			c0-1.6-0.8-3.2-3-3.2c-2,0-3.9,1-4.7,1.6V346.6z M375.3,354.3h-0.4c-3.5,0-5.5,0.8-5.5,3.2c0,1.6,1,2.6,2.6,2.6
			c2.4,0,3.2-1.8,3.2-4.7L375.3,354.3L375.3,354.3z"/>
		<path class="st0" d="M384.4,342.3l4.1-1.2v4.7h3.2v3h-3.5v8.7c0,1.8,0.6,2.2,1.8,2.2c0.8,0,1.2-0.2,1.6-0.4v2.8
			c-0.6,0.2-1.4,0.6-2.6,0.6c-3,0-4.7-1.4-4.7-4.9v-9.1h-2.6v-3h2.6L384.4,342.3L384.4,342.3z"/>
		<path class="st0" d="M394.6,338.7h4.1v4.1h-4.1V338.7z M394.6,345.8h4.1v16.6h-4.1V345.8z"/>
		<path class="st0" d="M409.6,345.4c3.5,0,7.3,1.8,7.3,8.5c0,7.1-3.9,8.7-7.3,8.7s-7.3-1.6-7.3-8.7
			C402.3,347.2,406.1,345.4,409.6,345.4z M409.6,359.8c2.6,0,3.2-3,3.2-5.7c0-2.6-0.6-5.7-3.2-5.7s-3.2,3-3.2,5.7
			C406.3,356.8,406.9,359.8,409.6,359.8z"/>
		<path class="st0" d="M420.1,348.4c0-1,0-2-0.2-2.8h3.9c0,0.8,0.2,1.6,0.2,2.6l0,0c0.6-1,1.6-2.8,4.5-2.8c3.9,0,4.9,2.8,4.9,6.3
			v10.8h-4.1v-9.9c0-2.6-0.6-3.7-2.2-3.7c-2,0-2.8,1.8-2.8,3.9v9.7h-4.1L420.1,348.4L420.1,348.4z"/>
		<path class="st0" d="M436.6,358.6c0.6,0.2,2.2,1,4.3,1c1.4,0,2.6-0.4,2.6-1.6c0-0.6-0.4-1.2-1.8-2l-1.6-1c-1.6-1-3.5-2-3.5-4.7
			c0-2.2,2.2-4.7,5.7-4.7c2.2,0,3.9,0.6,4.3,0.6l-0.2,3c-1-0.4-2-0.8-3.5-0.8c-1.6,0-2.2,0.6-2.2,1.6c0,0.8,0.8,1.4,1.8,2.2l2,1.2
			c2,1.4,3,2.2,3,4.3c0,3-2.6,4.9-6.3,4.9c-2,0-3.9-0.4-4.7-0.8V358.6z"/>
	</g>
</g>
<g>
	<path class="st0" d="M78.2,379.9c-31.7,0-57.5-25.8-57.5-57.7s25.8-57.5,57.5-57.5c31.9,0,57.7,25.8,57.7,57.5
		S110.1,379.9,78.2,379.9z M78,299.7c0,0,4.7,4.9,4.7,8.9c0,4.3-3.2,5.3-4.5,5.3H78l0,0h-0.2c-1.2,0-4.5-1-4.5-5.3
		C73.3,304.6,78,299.7,78,299.7z M34.8,325.5H40v-9.7h8.7v-4.1H40v-5.5h9.1v-4.1H34.8V325.5z M82.9,300.3h5.5l-6.5-23.1h-7.1
		l-6.7,23.1h5.1l1.4-5.3h6.7L82.9,300.3z M80.4,291.2h-4.9l2.2-10.2h0.4L80.4,291.2z M104.8,313.9c0,6.9,3.2,12,9.7,12
		c6.7,0,9.9-5.3,9.9-12c0-6.9-3.2-12-9.9-12C108.1,301.9,104.8,307.2,104.8,313.9z M110.5,313.9c0-4.5,1-8.1,4.3-8.1
		c3.2,0,4.3,3.7,4.3,8.1s-1.2,8.1-4.3,8.1C111.5,322,110.5,318.4,110.5,313.9z M75.8,373.4c0.4-2.2,0.6-5.9,0.6-10.2
		c0-1.2,0-0.4,0-0.6c0-5.9-0.2-7.9-4.3-9.3c-6.1-2-8.7-8.9-7.3-17.5l-20.3-52C33.9,293.2,27,307,27,322.2
		C27,349.7,48.8,372.2,75.8,373.4z M78.2,340.3C70.1,338.5,67,331,67,324.5l-17.9-44.3c-1.2,0.8-2.2,1.6-3.5,2.6
		c4.1,9.3,21.7,51.4,21.7,51.4c3,7.5,8.9,5.1,10.2,11.4c0.4,1.4,0.4,2.2,0.4,2.2h0.6c0,0,0-0.6,0.4-2.2c1.4-6.3,7.1-3.7,10.2-11.4
		c0,0,17.7-42,21.7-51.4c-1-0.8-2.2-1.8-3.5-2.6l-17.9,44.1C89.6,331,86.5,338.3,78.2,340.3L78.2,340.3z M78.2,326.9
		c-3.5-0.8-7.7-4.3-8.3-8.5c-0.2-1.6-0.4-2.2-0.2-5.5L54,277.2c-1.2,0.6-2.4,1.4-3.7,2.2c4.7,10.6,19.1,42.8,19.1,42.8
		c2.2,4.9,6.3,4.9,7.7,7.7c0.8,1.6,0.8,3.2,1,3.2h0.6c0-0.2,0-1.6,1-3.2c1.4-2.8,5.3-3,7.7-7.7c0,0,14.4-32.3,19.1-42.8
		c-1.2-0.8-2.4-1.6-3.7-2.2l-15.6,35.5c0.2,3.2,0,3.9-0.2,5.5C86.1,322.7,81.9,326.1,78.2,326.9L78.2,326.9z M78.4,320.8l0.2-2
		c1-4.5,4.3-3.9,6.5-8.3l0,0c0-0.2,11.2-24,15.8-33.9c-6.9-3.5-14.6-5.5-22.7-5.5s-16,2-22.7,5.5c4.7,9.9,15.8,33.9,15.8,33.9l0,0
		c2.2,4.5,5.5,3.9,6.5,8.3l0.2,2C78,320.8,78.4,320.8,78.4,320.8z M129.6,322.2c0-15.2-6.7-29-17.5-38.4l-20.5,52.2
		c1.4,8.5-1.2,15.4-7.3,17.5c-4.1,1.2-4.3,3.2-4.3,9.3c0,0.4,0-0.4,0,0.6c0,4.3,0.4,7.9,0.6,10.2
		C107.9,372.2,129.6,349.7,129.6,322.2z M43.3,337.5c0,0,0.8,1.6,1.4,2.8c0.6,1.2,1.4,2.4,1.4,2.4l-1.4,0.8c0,0-1-1.6-2-3.7
		c-0.2,0.2-1.8,1-2.2,1c0.2,0.2,1.8,3.5,1.8,3.5l-1.2,0.8c0,0-1.6-3.2-1.8-3.5c-0.2,0.2-3.9,2-3.9,2l-0.8-1.8L43.3,337.5L43.3,337.5
		z M48.8,346.2l1.2,1.4l-7.5,6.3l-1.2-1.4L48.8,346.2L48.8,346.2z M55.7,352.7l1.4,1l-1.8,10.4l-1.6-1c0,0,0.4-2,0.4-2.2
		c0,0-1-0.6-2-1.4c-1-0.6-1.8-1.4-2-1.6c-0.2,0.2-2,1.2-2,1.2l-1.4-1.2L55.7,352.7L55.7,352.7z M51.2,357.2c0.2,0.2,0.8,0.6,1.4,1.2
		c0.6,0.4,1.4,0.8,1.6,1c0-0.4,0.8-3.9,1-4.5C54.7,355.1,51.6,357,51.2,357.2z M61.8,356.6c0,0,1.6,0.8,3.9,1.6
		c1.6,0.6,2.8,1,4.1,1.2l-0.4,1.4c0,0-1.2-0.2-3.2-0.8c-0.2,0.4-2.6,7.7-2.6,7.7l-1.8-0.6c0,0,2.6-7.3,2.6-7.7c-1.8-0.6-3-1.4-3-1.4
		L61.8,356.6z M92.6,358.6c0.6,0.4,1,1,1.4,1.8c0.2,0.4,0.2,0.6,0.2,1c0,1.4-1,2.4-2.6,3c0,0-0.8,0.2-1.2,0.4c0,0.4,1.2,3.7,1.2,3.7
		l-1.8,0.2l-2.8-9.3l2.6-0.8C90.8,358.2,91.8,358.2,92.6,358.6z M89,360.2c0,0.2,0.8,2.6,0.8,2.8c0.4-0.2,1.2-0.4,1.2-0.4
		c0.2,0,0.8-0.4,1.2-0.8c0-0.2,0.2-0.4,0.2-0.6c0-0.2,0-0.4,0-0.4c-0.2-0.4-0.4-0.6-0.6-0.8c-0.6-0.2-1.2-0.2-1.6,0
		C90,360,89.2,360.2,89,360.2z M98.3,354.5l8.5,6.1l-1.4,1c0,0-1.6-1.2-1.8-1.4c0,0-1,0.6-1.8,1.2c-0.8,0.6-1.8,1-2,1
		c0,0.2,0.4,2.2,0.4,2.2l-1.6,0.8l-1.4-10.4L98.3,354.5z M99.3,361c0.2-0.2,0.8-0.4,1.6-0.8c0.6-0.4,1-0.6,1.2-0.8
		c-0.4-0.2-3-2.2-3.5-2.6C98.7,357.4,99.3,360.6,99.3,361z M108.1,346l7.3,6.5l-1.2,1.6c0,0-6.9-2-7.9-2.2c0.8,0.8,5.1,5.3,5.1,5.3
		l-1.4,1l-6.9-7.1l1.6-1.4c0,0,6.7,2,7.7,2.2c-0.8-0.8-5.5-4.7-5.5-4.7L108.1,346z M111.3,340.9l8.5,4.9l-0.8,1.4l-8.5-4.9
		L111.3,340.9z M115.2,332.8l1.4,0.8l-0.2,0.2c-0.4,0.6-0.6,0.8-1,1.6c-0.2,0.2-0.2,0.8,0,1.2c0.2,0.2,0.4,0.4,0.6,0.4
		c0.6,0.2,1.2-0.4,1.8-1c0.8-1,2-2,3.9-1.4c1.8,0.6,2.4,2.2,1.6,4.5c-0.2,0.6-0.6,1.2-1,1.8v0.2l-1.4-0.6l0.2-0.2
		c0.2-0.2,0.8-1,1-1.6s0.2-1.8-0.8-2c-0.8-0.2-1.4,0.4-2.2,1c-0.8,0.8-1.8,2-3.5,1.4c-0.8-0.2-1.2-0.6-1.6-1.2
		c-0.4-0.8-0.4-1.6,0-2.6C114.2,334.2,114.6,333.4,115.2,332.8L115.2,332.8z"/>
</g>
</svg>
